<svg xmlns="http://www.w3.org/2000/svg" xmlns:xlink="http://www.w3.org/1999/xlink" viewBox="0 0 1175.49 212.75"><defs><style>.cls-1,.cls-10,.cls-11,.cls-12,.cls-13,.cls-14,.cls-15,.cls-16,.cls-17,.cls-18,.cls-19,.cls-20,.cls-21,.cls-22,.cls-23,.cls-24,.cls-25,.cls-26,.cls-27,.cls-28,.cls-29,.cls-3,.cls-30,.cls-31,.cls-32,.cls-33,.cls-34,.cls-35,.cls-36,.cls-37,.cls-38,.cls-39,.cls-4,.cls-40,.cls-41,.cls-42,.cls-43,.cls-44,.cls-45,.cls-46,.cls-47,.cls-48,.cls-49,.cls-5,.cls-50,.cls-51,.cls-52,.cls-53,.cls-54,.cls-55,.cls-56,.cls-57,.cls-58,.cls-59,.cls-6,.cls-60,.cls-61,.cls-62,.cls-7,.cls-8,.cls-9{fill-rule:evenodd;}.cls-1{fill:url(#Degradado_sin_nombre_308);}.cls-2{fill:#e6e7e8;stroke:#cfcfcf;stroke-width:0.11px;}.cls-3{fill:url(#Degradado_sin_nombre_276);}.cls-4{fill:url(#Degradado_sin_nombre_276-2);}.cls-5{fill:url(#Degradado_sin_nombre_276-3);}.cls-6{fill:url(#Degradado_sin_nombre_276-4);}.cls-7{fill:url(#Degradado_sin_nombre_276-5);}.cls-8{fill:url(#Degradado_sin_nombre_276-6);}.cls-9{fill:url(#Degradado_sin_nombre_276-7);}.cls-10{fill:url(#Degradado_sin_nombre_276-8);}.cls-11{fill:url(#Degradado_sin_nombre_276-9);}.cls-12{fill:url(#Degradado_sin_nombre_276-10);}.cls-13{fill:url(#Degradado_sin_nombre_276-11);}.cls-14{fill:url(#Degradado_sin_nombre_276-12);}.cls-15{fill:url(#Degradado_sin_nombre_276-13);}.cls-16{fill:url(#Degradado_sin_nombre_276-14);}.cls-17{fill:url(#Degradado_sin_nombre_276-15);}.cls-18{fill:url(#Degradado_sin_nombre_276-16);}.cls-19{fill:url(#Degradado_sin_nombre_276-17);}.cls-20{fill:url(#Degradado_sin_nombre_276-18);}.cls-21{fill:url(#Degradado_sin_nombre_276-19);}.cls-22{fill:url(#Degradado_sin_nombre_276-20);}.cls-23{fill:url(#Degradado_sin_nombre_276-21);}.cls-24{fill:url(#Degradado_sin_nombre_276-22);}.cls-25{fill:url(#Degradado_sin_nombre_276-23);}.cls-26{fill:url(#Degradado_sin_nombre_276-24);}.cls-27{fill:url(#Degradado_sin_nombre_276-25);}.cls-28{fill:url(#Degradado_sin_nombre_276-26);}.cls-29{fill:url(#Degradado_sin_nombre_276-27);}.cls-30{fill:url(#Degradado_sin_nombre_276-28);}.cls-31{fill:url(#Degradado_sin_nombre_276-29);}.cls-32{fill:url(#Degradado_sin_nombre_276-30);}.cls-33{fill:url(#Degradado_sin_nombre_276-31);}.cls-34{fill:url(#Degradado_sin_nombre_276-32);}.cls-35{fill:url(#Degradado_sin_nombre_276-33);}.cls-36{fill:url(#Degradado_sin_nombre_276-34);}.cls-37{fill:url(#Degradado_sin_nombre_276-35);}.cls-38{fill:url(#Degradado_sin_nombre_276-36);}.cls-39{fill:url(#Degradado_sin_nombre_276-37);}.cls-40{fill:url(#Degradado_sin_nombre_276-38);}.cls-41{fill:url(#Degradado_sin_nombre_276-39);}.cls-42{fill:url(#Degradado_sin_nombre_276-40);}.cls-43{fill:url(#Degradado_sin_nombre_276-41);}.cls-44{fill:url(#Degradado_sin_nombre_276-42);}.cls-45{fill:url(#Degradado_sin_nombre_276-43);}.cls-46{fill:url(#Degradado_sin_nombre_276-44);}.cls-47{fill:url(#Degradado_sin_nombre_276-45);}.cls-48{fill:url(#Degradado_sin_nombre_276-46);}.cls-49{fill:url(#Degradado_sin_nombre_276-47);}.cls-50{fill:url(#Degradado_sin_nombre_276-48);}.cls-51{fill:url(#Degradado_sin_nombre_276-49);}.cls-52{fill:url(#Degradado_sin_nombre_276-50);}.cls-53{fill:url(#Degradado_sin_nombre_276-51);}.cls-54{fill:url(#Degradado_sin_nombre_276-52);}.cls-55{fill:url(#Degradado_sin_nombre_276-53);}.cls-56{fill:url(#Degradado_sin_nombre_276-54);}.cls-57{fill:url(#Degradado_sin_nombre_276-55);}.cls-58{fill:url(#Degradado_sin_nombre_276-56);}.cls-59{fill:url(#Degradado_sin_nombre_276-57);}.cls-60{fill:url(#Degradado_sin_nombre_276-58);}.cls-61{fill:url(#Degradado_sin_nombre_308-2);}.cls-62{fill:url(#Degradado_sin_nombre_308-3);}.cls-63{fill:url(#Degradado_sin_nombre_276-59);}.cls-64,.cls-65,.cls-66,.cls-67,.cls-68,.cls-69,.cls-70,.cls-71,.cls-72,.cls-73,.cls-74,.cls-75,.cls-76{stroke-miterlimit:10;stroke-width:2px;}.cls-64{fill:url(#Degradado_sin_nombre_308-4);stroke:url(#New_Gradient_Swatch_3);}.cls-65{fill:url(#linear-gradient);stroke:url(#New_Gradient_Swatch_3-2);}.cls-66{fill:url(#Degradado_sin_nombre_308-5);stroke:url(#New_Gradient_Swatch_3-3);}.cls-67{fill:url(#Degradado_sin_nombre_308-6);stroke:url(#New_Gradient_Swatch_3-4);}.cls-68{fill:url(#Degradado_sin_nombre_308-7);stroke:url(#New_Gradient_Swatch_3-5);}.cls-69{fill:url(#Degradado_sin_nombre_308-8);stroke:url(#New_Gradient_Swatch_3-6);}.cls-70{fill:url(#Degradado_sin_nombre_308-9);stroke:url(#New_Gradient_Swatch_3-7);}.cls-71{fill:url(#Degradado_sin_nombre_308-10);stroke:url(#New_Gradient_Swatch_3-8);}.cls-72{fill:url(#Degradado_sin_nombre_308-11);stroke:url(#New_Gradient_Swatch_3-9);}.cls-73{fill:url(#Degradado_sin_nombre_308-12);stroke:url(#New_Gradient_Swatch_3-10);}.cls-74{fill:url(#Degradado_sin_nombre_308-13);stroke:url(#New_Gradient_Swatch_3-11);}.cls-75{fill:url(#Degradado_sin_nombre_308-14);stroke:url(#New_Gradient_Swatch_3-12);}.cls-76{fill:url(#Degradado_sin_nombre_308-15);stroke:url(#New_Gradient_Swatch_3-13);}</style><linearGradient id="Degradado_sin_nombre_308" x1="93.69" y1="199.08" x2="93.69" y2="53.22" gradientUnits="userSpaceOnUse"><stop offset="0.08" stop-color="#a85500"/><stop offset="0.38" stop-color="#e0861d"/><stop offset="0.54" stop-color="#ffa12d"/><stop offset="1" stop-color="#ffbf2b"/></linearGradient><linearGradient id="Degradado_sin_nombre_276" x1="77.25" y1="216.29" x2="77.25" y2="190.43" gradientUnits="userSpaceOnUse"><stop offset="0.06" stop-color="#a85500"/><stop offset="0.37" stop-color="#e0861d"/><stop offset="0.54" stop-color="#ffa12d"/><stop offset="1" stop-color="#ffbf2b"/></linearGradient><linearGradient id="Degradado_sin_nombre_276-2" x1="79" y1="216.29" x2="79" y2="190.43" xlink:href="#Degradado_sin_nombre_276"/><linearGradient id="Degradado_sin_nombre_276-3" x1="61" y1="216.29" x2="61" y2="190.43" xlink:href="#Degradado_sin_nombre_276"/><linearGradient id="Degradado_sin_nombre_276-4" x1="63.73" y1="216.29" x2="63.73" y2="190.43" xlink:href="#Degradado_sin_nombre_276"/><linearGradient id="Degradado_sin_nombre_276-5" x1="45.69" y1="216.29" x2="45.69" y2="190.43" xlink:href="#Degradado_sin_nombre_276"/><linearGradient id="Degradado_sin_nombre_276-6" x1="49.25" y1="216.29" x2="49.25" y2="190.43" xlink:href="#Degradado_sin_nombre_276"/><linearGradient id="Degradado_sin_nombre_276-7" x1="32.2" y1="216.29" x2="32.2" y2="190.43" xlink:href="#Degradado_sin_nombre_276"/><linearGradient id="Degradado_sin_nombre_276-8" x1="36.41" y1="216.29" x2="36.41" y2="190.43" xlink:href="#Degradado_sin_nombre_276"/><linearGradient id="Degradado_sin_nombre_276-9" x1="20.76" y1="216.29" x2="20.76" y2="190.43" xlink:href="#Degradado_sin_nombre_276"/><linearGradient id="Degradado_sin_nombre_276-10" x1="25.63" y1="216.29" x2="25.63" y2="190.43" xlink:href="#Degradado_sin_nombre_276"/><linearGradient id="Degradado_sin_nombre_276-11" x1="12.23" y1="216.29" x2="12.23" y2="190.43" xlink:href="#Degradado_sin_nombre_276"/><linearGradient id="Degradado_sin_nombre_276-12" x1="17.49" y1="216.29" x2="17.49" y2="190.43" xlink:href="#Degradado_sin_nombre_276"/><linearGradient id="Degradado_sin_nombre_276-13" x1="6.68" y1="216.29" x2="6.68" y2="190.43" xlink:href="#Degradado_sin_nombre_276"/><linearGradient id="Degradado_sin_nombre_276-14" x1="12.06" y1="216.29" x2="12.06" y2="190.43" xlink:href="#Degradado_sin_nombre_276"/><linearGradient id="Degradado_sin_nombre_276-15" x1="3.65" y1="216.29" x2="3.65" y2="190.43" xlink:href="#Degradado_sin_nombre_276"/><linearGradient id="Degradado_sin_nombre_276-16" x1="9.18" y1="216.29" x2="9.18" y2="190.43" xlink:href="#Degradado_sin_nombre_276"/><linearGradient id="Degradado_sin_nombre_276-17" x1="3.4" y1="216.29" x2="3.4" y2="190.43" xlink:href="#Degradado_sin_nombre_276"/><linearGradient id="Degradado_sin_nombre_276-18" x1="9.6" y1="216.29" x2="9.6" y2="190.43" xlink:href="#Degradado_sin_nombre_276"/><linearGradient id="Degradado_sin_nombre_276-19" x1="7.04" y1="216.29" x2="7.04" y2="190.43" xlink:href="#Degradado_sin_nombre_276"/><linearGradient id="Degradado_sin_nombre_276-20" x1="12.66" y1="216.29" x2="12.66" y2="190.43" xlink:href="#Degradado_sin_nombre_276"/><linearGradient id="Degradado_sin_nombre_276-21" x1="13.79" y1="216.29" x2="13.79" y2="190.43" xlink:href="#Degradado_sin_nombre_276"/><linearGradient id="Degradado_sin_nombre_276-22" x1="18.69" y1="216.29" x2="18.69" y2="190.43" xlink:href="#Degradado_sin_nombre_276"/><linearGradient id="Degradado_sin_nombre_276-23" x1="23.05" y1="216.29" x2="23.05" y2="190.43" xlink:href="#Degradado_sin_nombre_276"/><linearGradient id="Degradado_sin_nombre_276-24" x1="27.12" y1="216.29" x2="27.12" y2="190.43" xlink:href="#Degradado_sin_nombre_276"/><linearGradient id="Degradado_sin_nombre_276-25" x1="34.66" y1="216.29" x2="34.66" y2="190.43" xlink:href="#Degradado_sin_nombre_276"/><linearGradient id="Degradado_sin_nombre_276-26" x1="37.87" y1="216.29" x2="37.87" y2="190.43" xlink:href="#Degradado_sin_nombre_276"/><linearGradient id="Degradado_sin_nombre_276-27" x1="48.3" y1="216.29" x2="48.3" y2="190.43" xlink:href="#Degradado_sin_nombre_276"/><linearGradient id="Degradado_sin_nombre_276-28" x1="50.55" y1="216.29" x2="50.55" y2="190.43" xlink:href="#Degradado_sin_nombre_276"/><linearGradient id="Degradado_sin_nombre_276-29" x1="60.89" y1="216.29" x2="60.89" y2="190.43" xlink:href="#Degradado_sin_nombre_276"/><linearGradient id="Degradado_sin_nombre_276-30" x1="110.14" y1="216.29" x2="110.14" y2="190.43" xlink:href="#Degradado_sin_nombre_276"/><linearGradient id="Degradado_sin_nombre_276-31" x1="108.39" y1="216.29" x2="108.39" y2="190.43" xlink:href="#Degradado_sin_nombre_276"/><linearGradient id="Degradado_sin_nombre_276-32" x1="126.39" y1="216.29" x2="126.39" y2="190.43" xlink:href="#Degradado_sin_nombre_276"/><linearGradient id="Degradado_sin_nombre_276-33" x1="123.66" y1="216.29" x2="123.66" y2="190.43" xlink:href="#Degradado_sin_nombre_276"/><linearGradient id="Degradado_sin_nombre_276-34" x1="141.7" y1="216.29" x2="141.7" y2="190.43" xlink:href="#Degradado_sin_nombre_276"/><linearGradient id="Degradado_sin_nombre_276-35" x1="138.14" y1="216.29" x2="138.14" y2="190.43" xlink:href="#Degradado_sin_nombre_276"/><linearGradient id="Degradado_sin_nombre_276-36" x1="155.19" y1="216.29" x2="155.19" y2="190.43" xlink:href="#Degradado_sin_nombre_276"/><linearGradient id="Degradado_sin_nombre_276-37" x1="150.97" y1="216.29" x2="150.97" y2="190.43" xlink:href="#Degradado_sin_nombre_276"/><linearGradient id="Degradado_sin_nombre_276-38" x1="166.63" y1="216.29" x2="166.63" y2="190.43" xlink:href="#Degradado_sin_nombre_276"/><linearGradient id="Degradado_sin_nombre_276-39" x1="161.76" y1="216.29" x2="161.76" y2="190.43" xlink:href="#Degradado_sin_nombre_276"/><linearGradient id="Degradado_sin_nombre_276-40" x1="175.17" y1="216.29" x2="175.17" y2="190.43" xlink:href="#Degradado_sin_nombre_276"/><linearGradient id="Degradado_sin_nombre_276-41" x1="169.9" y1="216.29" x2="169.9" y2="190.43" xlink:href="#Degradado_sin_nombre_276"/><linearGradient id="Degradado_sin_nombre_276-42" x1="180.72" y1="216.29" x2="180.72" y2="190.43" xlink:href="#Degradado_sin_nombre_276"/><linearGradient id="Degradado_sin_nombre_276-43" x1="175.33" y1="216.29" x2="175.33" y2="190.43" xlink:href="#Degradado_sin_nombre_276"/><linearGradient id="Degradado_sin_nombre_276-44" x1="183.74" y1="216.29" x2="183.74" y2="190.43" xlink:href="#Degradado_sin_nombre_276"/><linearGradient id="Degradado_sin_nombre_276-45" x1="178.21" y1="216.29" x2="178.21" y2="190.43" xlink:href="#Degradado_sin_nombre_276"/><linearGradient id="Degradado_sin_nombre_276-46" x1="183.99" y1="216.29" x2="183.99" y2="190.43" xlink:href="#Degradado_sin_nombre_276"/><linearGradient id="Degradado_sin_nombre_276-47" x1="177.79" y1="216.29" x2="177.79" y2="190.43" xlink:href="#Degradado_sin_nombre_276"/><linearGradient id="Degradado_sin_nombre_276-48" x1="180.35" y1="216.29" x2="180.35" y2="190.43" xlink:href="#Degradado_sin_nombre_276"/><linearGradient id="Degradado_sin_nombre_276-49" x1="174.75" y1="216.29" x2="174.75" y2="190.43" xlink:href="#Degradado_sin_nombre_276"/><linearGradient id="Degradado_sin_nombre_276-50" x1="173.6" y1="216.29" x2="173.6" y2="190.43" xlink:href="#Degradado_sin_nombre_276"/><linearGradient id="Degradado_sin_nombre_276-51" x1="168.7" y1="216.29" x2="168.7" y2="190.43" xlink:href="#Degradado_sin_nombre_276"/><linearGradient id="Degradado_sin_nombre_276-52" x1="164.33" y1="216.29" x2="164.33" y2="190.43" xlink:href="#Degradado_sin_nombre_276"/><linearGradient id="Degradado_sin_nombre_276-53" x1="160.27" y1="216.29" x2="160.27" y2="190.43" xlink:href="#Degradado_sin_nombre_276"/><linearGradient id="Degradado_sin_nombre_276-54" x1="152.73" y1="216.29" x2="152.73" y2="190.43" xlink:href="#Degradado_sin_nombre_276"/><linearGradient id="Degradado_sin_nombre_276-55" x1="149.51" y1="216.29" x2="149.51" y2="190.43" xlink:href="#Degradado_sin_nombre_276"/><linearGradient id="Degradado_sin_nombre_276-56" x1="139.08" y1="216.29" x2="139.08" y2="190.43" xlink:href="#Degradado_sin_nombre_276"/><linearGradient id="Degradado_sin_nombre_276-57" x1="136.84" y1="216.29" x2="136.84" y2="190.43" xlink:href="#Degradado_sin_nombre_276"/><linearGradient id="Degradado_sin_nombre_276-58" x1="126.49" y1="216.29" x2="126.49" y2="190.43" xlink:href="#Degradado_sin_nombre_276"/><linearGradient id="Degradado_sin_nombre_308-2" x1="93.71" y1="51.15" x2="93.71" y2="131.38" xlink:href="#Degradado_sin_nombre_308"/><linearGradient id="Degradado_sin_nombre_308-3" x1="93.69" y1="-8.26" x2="93.69" y2="21.74" xlink:href="#Degradado_sin_nombre_308"/><linearGradient id="Degradado_sin_nombre_276-59" x1="93.97" y1="170.43" x2="93.97" y2="294.09" xlink:href="#Degradado_sin_nombre_276"/><linearGradient id="Degradado_sin_nombre_308-4" x1="241.78" y1="52.65" x2="241.78" y2="180.06" xlink:href="#Degradado_sin_nombre_308"/><linearGradient id="New_Gradient_Swatch_3" x1="209.2" y1="122.37" x2="274.37" y2="122.37" gradientUnits="userSpaceOnUse"><stop offset="0.03" stop-color="#b37e10"/><stop offset="0.12" stop-color="#b68214"/><stop offset="0.22" stop-color="#be8d21"/><stop offset="0.32" stop-color="#cb9f36"/><stop offset="0.42" stop-color="#deb953"/><stop offset="0.52" stop-color="#f6da78"/><stop offset="0.53" stop-color="#f8dd7b"/><stop offset="0.74" stop-color="#f8dd7b"/><stop offset="0.88" stop-color="#b37e10"/><stop offset="1" stop-color="#c6972f"/></linearGradient><linearGradient id="linear-gradient" x1="315.98" y1="52.65" x2="315.98" y2="180.06" xlink:href="#Degradado_sin_nombre_308"/><linearGradient id="New_Gradient_Swatch_3-2" x1="283.32" y1="122.37" x2="348.63" y2="122.37" xlink:href="#New_Gradient_Swatch_3"/><linearGradient id="Degradado_sin_nombre_308-5" x1="393.26" y1="52.65" x2="393.26" y2="180.06" xlink:href="#Degradado_sin_nombre_308"/><linearGradient id="New_Gradient_Swatch_3-3" x1="360.67" y1="122.37" x2="425.84" y2="122.37" xlink:href="#New_Gradient_Swatch_3"/><linearGradient id="Degradado_sin_nombre_308-6" x1="467.24" y1="52.65" x2="467.24" y2="180.06" xlink:href="#Degradado_sin_nombre_308"/><linearGradient id="New_Gradient_Swatch_3-4" x1="434.65" y1="122.37" x2="499.82" y2="122.37" xlink:href="#New_Gradient_Swatch_3"/><linearGradient id="Degradado_sin_nombre_308-7" x1="541.92" y1="52.65" x2="541.92" y2="180.06" xlink:href="#Degradado_sin_nombre_308"/><linearGradient id="New_Gradient_Swatch_3-5" x1="508.77" y1="122.37" x2="575.07" y2="122.37" xlink:href="#New_Gradient_Swatch_3"/><linearGradient id="Degradado_sin_nombre_308-8" x1="619.7" y1="52.65" x2="619.7" y2="180.06" xlink:href="#Degradado_sin_nombre_308"/><linearGradient id="New_Gradient_Swatch_3-6" x1="587.11" y1="122.37" x2="652.28" y2="122.37" xlink:href="#New_Gradient_Swatch_3"/><linearGradient id="Degradado_sin_nombre_308-9" x1="693.33" y1="52.65" x2="693.33" y2="180.06" xlink:href="#Degradado_sin_nombre_308"/><linearGradient id="New_Gradient_Swatch_3-7" x1="664.04" y1="122.37" x2="722.61" y2="122.37" xlink:href="#New_Gradient_Swatch_3"/><linearGradient id="Degradado_sin_nombre_308-10" x1="763.59" y1="52.65" x2="763.59" y2="180.06" xlink:href="#Degradado_sin_nombre_308"/><linearGradient id="New_Gradient_Swatch_3-8" x1="731" y1="122.37" x2="796.17" y2="122.37" xlink:href="#New_Gradient_Swatch_3"/><linearGradient id="Degradado_sin_nombre_308-11" x1="838.48" y1="52.65" x2="838.48" y2="180.06" xlink:href="#Degradado_sin_nombre_308"/><linearGradient id="New_Gradient_Swatch_3-9" x1="805.12" y1="122.37" x2="872.17" y2="122.37" xlink:href="#New_Gradient_Swatch_3"/><linearGradient id="Degradado_sin_nombre_308-12" x1="914.92" y1="52.65" x2="914.92" y2="180.06" xlink:href="#Degradado_sin_nombre_308"/><linearGradient id="New_Gradient_Swatch_3-10" x1="882.33" y1="122.37" x2="947.51" y2="122.37" xlink:href="#New_Gradient_Swatch_3"/><linearGradient id="Degradado_sin_nombre_308-13" x1="992.13" y1="52.65" x2="992.13" y2="180.06" xlink:href="#Degradado_sin_nombre_308"/><linearGradient id="New_Gradient_Swatch_3-11" x1="959.54" y1="122.37" x2="1024.72" y2="122.37" xlink:href="#New_Gradient_Swatch_3"/><linearGradient id="Degradado_sin_nombre_308-14" x1="1086.96" y1="52.65" x2="1086.96" y2="180.06" xlink:href="#Degradado_sin_nombre_308"/><linearGradient id="New_Gradient_Swatch_3-12" x1="1075.36" y1="122.37" x2="1098.56" y2="122.37" xlink:href="#New_Gradient_Swatch_3"/><linearGradient id="Degradado_sin_nombre_308-15" x1="1142.9" y1="52.65" x2="1142.9" y2="180.06" xlink:href="#Degradado_sin_nombre_308"/><linearGradient id="New_Gradient_Swatch_3-13" x1="1110.31" y1="122.37" x2="1175.49" y2="122.37" xlink:href="#New_Gradient_Swatch_3"/></defs><g id="Layer_2" data-name="Layer 2"><g id="objects"><path class="cls-1" d="M149.45,64.53a79,79,0,1,0,23,55.76A78.31,78.31,0,0,0,149.45,64.53ZM26.2,107.74l.4-1.82.87,1.63,1.85-.19L28,108.7l.75,1.7-1.66-.81-1.4,1.25L26,109l-1.61-1Zm-1.15,11.91.07-1.87,1.14,1.46,1.8-.5-1,1.53,1,1.56-1.78-.52-1.16,1.47-.06-1.85-1.75-.65Zm1.55,15-.38-1.81-1.84-.33,1.6-.93-.25-1.85L27.11,131l1.68-.81L28,131.85l1.29,1.35-1.84-.2Zm4.1,9.66-.59,1.77-.69-1.72H27.55L29,143.17l-.57-1.78,1.58,1,1.51-1.09L31,143.07l1.51,1.11Zm.35-46.84.44,1.82L30,98.2l-1.59,1L29,97.42l-1.43-1.21H29.4l.71-1.72.57,1.76,1.87.14Zm4.77,57.41-.26,1.85-1-1.57-1.84.31,1.19-1.41-.87-1.66,1.71.7,1.31-1.34L36,153.61l1.67.83ZM36,86.94l.12,1.86L34.8,87.47l-1.74.69.87-1.63-1.19-1.44,1.82.33,1-1.58.25,1.83,1.81.46Zm89.85-27.29,1.63.87,1.44-1.19-.32,1.82,1.58,1-1.83.25-.47,1.82-.8-1.67-1.87.12,1.33-1.28Zm-83,106.62-1.24-1.38-1.76.63.93-1.6-1.14-1.48,1.81.39,1.05-1.54.2,1.84,1.79.52-1.69.75Zm-.14-88.85-.21,1.86-1-1.54-1.83.38,1.14-1.46L39.77,75l1.75.63,1.25-1.38-.07,1.85,1.71.77Zm8.9,97-1.46-1.15-1.62.93.63-1.74L47.7,171.2l1.85.07.77-1.7.51,1.78,1.86.2-1.54,1ZM50.85,69.21,50.32,71l-.75-1.69-1.87,0,1.38-1.24-.63-1.76,1.6.93,1.48-1.14L51.14,68,52.69,69ZM61.57,180.92l-1.63-.87-1.44,1.19.33-1.83-1.58-1,1.82-.26.47-1.81.81,1.66,1.86-.12-1.33,1.29ZM60.36,62.54l-.82,1.68-.45-1.8-1.84-.27,1.56-1-.31-1.84,1.42,1.19,1.65-.87-.7,1.72,1.34,1.3Zm12.23,123L70.83,185l-1.21,1.42v-1.85l-1.73-.71,1.76-.57.14-1.86,1.09,1.5,1.81-.44L71.6,184ZM70.9,57.63l-1.11,1.5-.12-1.84-1.78-.59L69.61,56V54.14l1.18,1.42L72.59,55l-1,1.58,1.09,1.51ZM82.41,188l-.94,1.62-.32-1.82-1.83-.41,1.64-.86-.19-1.86,1.34,1.29,1.7-.76-.8,1.67,1.23,1.39ZM83,53.7l.8,1.68-1.69-.76-1.35,1.29.2-1.84-1.65-.88,1.81-.38L81.47,51l.92,1.6,1.85-.25ZM94.34,188.91l-.65,1.75-.63-1.74-1.87-.07,1.46-1.13-.5-1.81,1.53,1,1.56-1-.52,1.78,1.47,1.16Zm.39-136.06.51,1.8-1.54-1-1.55,1,.51-1.78-1.47-1.16L93,51.65l.65-1.75.63,1.74,1.87.07Zm11.52,134.91-.33,1.84L105,188l-1.85.25,1.24-1.37-.81-1.69,1.69.76,1.35-1.29-.19,1.84,1.64.88Zm.17-133.7.19,1.85-1.33-1.28-1.71.75.81-1.66-1.24-1.4,1.83.26,1-1.61.31,1.82,1.83.4Zm11.35,130.49v1.87L116.58,185l-1.79.57,1-1.57-1.09-1.51,1.8.45,1.1-1.51.13,1.84,1.77.59Zm0-127.28-.14,1.86-1.09-1.49-1.81.44,1.09-1.5-1-1.59,1.76.58,1.22-1.43V56l1.73.71Zm11.15,124-1.41-1.19-1.66.87.7-1.72-1.34-1.31L127,178l.82-1.67.45,1.8,1.85.27-1.57,1Zm10.05-7-1.6-.93-1.48,1.15.39-1.82-1.54-1,1.84-.19.52-1.79.75,1.69,1.87-.06-1.37,1.24Zm-1.1-104.9-.77,1.7-.51-1.78L134.7,69l1.53-1-.38-1.83,1.46,1.14,1.62-.93-.63,1.74,1.38,1.26Zm9.78,96.22-1.74-.63-1.26,1.38.07-1.85-1.7-.77,1.78-.51.2-1.85,1,1.53,1.83-.38-1.15,1.46ZM146,77.73l-1,1.55-.19-1.85L143,76.91l1.69-.75-.06-1.87,1.24,1.38,1.76-.63-.93,1.6,1.15,1.48Zm13.31,41,1.78.51,1.16-1.47.06,1.86,1.76.64-1.74.63-.08,1.87-1.14-1.46-1.8.51,1-1.54Zm1.46-12.82.39,1.81,1.84.33-1.61.92.25,1.86-1.37-1.25-1.69.81.76-1.68-1.29-1.36,1.84.2Zm-4.1-9.66.59-1.77L158,96.2h1.87l-1.42,1.19.57,1.78-1.57-1-1.51,1.09.44-1.8-1.5-1.1Zm-3.85,58.89-1,1.58-.26-1.83-1.81-.46,1.66-.81-.12-1.87,1.29,1.33,1.73-.69-.86,1.64,1.19,1.43Zm.63-68.64.86,1.65-1.71-.7L151.3,88.8l.14-1.84-1.68-.83,1.8-.44.27-1.85,1,1.57,1.84-.32ZM158,144.35l-.71,1.73-.57-1.76-1.86-.14,1.5-1.09-.44-1.81,1.49,1.09,1.59-1-.58,1.75,1.43,1.21Zm3.2-11.53-.4,1.83-.86-1.64-1.86.19,1.29-1.33-.76-1.71,1.67.81,1.39-1.24-.26,1.83,1.62.95Z"/><path d="M40.05,130.57A53.72,53.72,0,0,0,50.5,153.84,55.82,55.82,0,0,0,70.29,169.9,53.51,53.51,0,0,0,102,174.34a55,55,0,0,0,8.54-2.14,56.79,56.79,0,0,0,27.68-20.84,55,55,0,0,0,7.52-47.64,20.92,20.92,0,0,0-1.36-4c-.57-1.33-1.48-3.66-2.5-5.53-.64-1.16-1.28-2.21-1.82-3a54,54,0,0,0-27.25-22.24,57.48,57.48,0,0,0-11.68-3c-7.51-1.23-16.35.4-18.36.92a55.36,55.36,0,0,0-42.76,63.7Z"/><path class="cls-2" d="M125,160.46c-.21.16-.61.08-.82.24s-.22.56-.43.72a51.42,51.42,0,0,1-35.11,9.89c-.31,0-.63-.46-.94-.49s-.6.33-.91.29A50.54,50.54,0,0,1,54.9,153.9c-.17-.19-.15-.63-.32-.83s-1-.38-1.17-.56c-13.9-17.2-14.79-42.06-1.39-61.28C68.25,68,100.08,62.1,123.12,78.16s28.56,47.94,12.34,71.22A52,52,0,0,1,125,160.46Z"/><path d="M121.54,98.76s-.8-.68-1.17-.43a7.8,7.8,0,0,0-.79.67,5.23,5.23,0,0,0,.21-2.42A54.33,54.33,0,0,0,115,86.8c-2.69-4.5-3.49-5.57-3.92-5.87a10.55,10.55,0,0,1-1.31-1.43s.37.39.88-.15a2.16,2.16,0,0,1,.83-.64s-.44,1.36-.17,1.8,4.09,6.25,5,7.87,3.67,7.68,4.2,8.31A8.77,8.77,0,0,1,121.54,98.76Z"/><path d="M108.16,113.64s-.85.12-.63.91a3.65,3.65,0,0,0,.41,1s-1-1.11-4.07-1.68-10.78-1.43-13.16-1.61-5.28-.62-6.62-.52-4,.1-4.13-.3,1.4-1.45,1.4-1.45,1.78,1.47,2.22,1.39S99,112.67,101.22,113s4.74.74,5.38.74A8.51,8.51,0,0,0,108.16,113.64Z"/><path d="M87.73,76.35c.27-.26.15.31.27.25.37-.17.27.25.27.25a88.83,88.83,0,0,0-8.17,7.69c-3,3.45-5.07,6.26-5.2,7s-.44,2-.74,1.6-.77-.54-.75-.85a49.91,49.91,0,0,1,5.9-7.73,72,72,0,0,1,6.45-5.95C86.16,78.33,87.2,76.85,87.73,76.35Z"/><path d="M52,121.53a36.26,36.26,0,0,0-4.25,5.36,52.42,52.42,0,0,0-2.5,6.25s-.13-.46-.3-.39a24.82,24.82,0,0,1,2.41-5.94c1.07-1.63,4-5.59,4.19-5.47A1.63,1.63,0,0,0,52,121.53Z"/><path d="M55,99.51a23.64,23.64,0,0,0-3-1.88,15.26,15.26,0,0,0-3.42-.76l.19-.36a8.26,8.26,0,0,1,3.35.8c.88.56,2.77,1.63,2.66,1.79S55,99.51,55,99.51Z"/><path d="M78.65,152.3a.75.75,0,0,0-.85.12A3,3,0,0,1,77,153a2.29,2.29,0,0,0-.18-2.49,53.62,53.62,0,0,1-4.59-8.39c-1.65-4-4.62-11.93-4.85-12.34s.11.58.51.1.59-.49.59-.49a37.91,37.91,0,0,0,1.15,5c.56,1.41,3.36,8.42,4.84,11.25a30.3,30.3,0,0,0,3,5A13,13,0,0,1,78.65,152.3Z"/><path d="M117.7,135.6s-.31.35-.81-.12-.44-.75-.44-.75a11.23,11.23,0,0,1-1.15,2.84c-.86,1.52-3.43,5.1-5.38,7.72a62.48,62.48,0,0,1-7,8,12.43,12.43,0,0,1-2.28,1.42s.71-.08.89.3a5.69,5.69,0,0,1,.26.63s3.44-4.2,6.69-7.76S117.7,135.6,117.7,135.6Z"/><path d="M136.73,138.74a68.25,68.25,0,0,1,.93,7s-.64-4.22-1.06-6.56a63.37,63.37,0,0,0-1.89-6.57c-.19-.73-1.48-.91-1.58-1s.7-.72.88-1,1-1.12.94-.69a11.16,11.16,0,0,0,0,2.43A65.5,65.5,0,0,1,136.73,138.74Z"/><path d="M124.22,160.69a66.17,66.17,0,0,1-8,3.77c-2.34.68-6.93,1.58-7.84,1.78a12.64,12.64,0,0,1-2.46.14l.55-.51-.37-.77s6,.24,9.9-1A63.37,63.37,0,0,0,124.22,160.69Z"/><path d="M61.77,160.07s3.93,1.07,4.5,1.27,3.41,1.17,3.41,1.17a.21.21,0,0,1-.06-.37c.22-.23.25-.08.25-.08s-2.74-.76-3.93-1.07-4.81-1.37-5.06-1.29-.3-.21-.3-.21l.35.51Z"/><path d="M136.08,111.29a3.43,3.43,0,0,0-.88-1.89,1.42,1.42,0,0,1-.21-1.62s1.36.79,2,.3a17.76,17.76,0,0,0,2.86-3.65,8.65,8.65,0,0,0,.92-2.24l.07.37a6.45,6.45,0,0,1-1,2.33,32.18,32.18,0,0,0-2.27,3.34A16,16,0,0,1,136.08,111.29Z"/><path d="M120.83,76.65s-2-.68-2.82-.84-2.3-.38-2.42-.66.44-.27.86,0,2.3.29,3.49,1S120.83,76.65,120.83,76.65Z"/><path d="M134.38,131.21a72.91,72.91,0,0,1-12.07,3.72c-3.37.55-5.21,1.23-5.61.95s-3.67-9-5.45-13-4-8-4-8.4,4.19-5.27,7.06-8.9,5.68-7.66,6-7.56,2.47.62,8,4.46,7.75,5.66,7.82,6.31a40.3,40.3,0,0,1,.53,9.76C136.18,123,134.89,130.72,134.38,131.21Z"/><path d="M142.57,105.25a15.48,15.48,0,0,0-1.34-2.49c-.36-.32-.6-.42-.54-.7a1.31,1.31,0,0,0,.08-1A42.49,42.49,0,0,0,138,95c-1.12-1.87-2-3.68-2-3.68a44.34,44.34,0,0,1,2.86,4.53c1,1.75,1.81,3.93,2.35,5.18A15,15,0,0,1,142.57,105.25Z"/><path d="M106.47,165.87c-.24.12-2.2,2.5-9.45,3.91s-8.76,1.26-8.93,1.14-7.81-1.66-11.85-4.22-7.38-4.57-7.1-4.7,1.1.45,3.2-2.57,5.33-7.55,5.33-7.55,11,2.75,16.47,2.83,7.33-.33,7.46-.05,1.77,4.63,2.7,6.88S106.67,165.75,106.47,165.87Z"/><path d="M82.21,111.18c-.16.28-4.64,5.92-7.26,9.41s-6.52,9.54-6.9,9.53A45.91,45.91,0,0,1,58.56,126c-4.86-2.69-7-3.85-7.21-4.45s.41-10.41.89-13.86a40.24,40.24,0,0,1,2.35-8.6c.3-.43,7.31-4.25,13.3-5.59s6-1.3,6.37-.68S82.53,110.63,82.21,111.18Z"/><path d="M49.48,146.38a51.82,51.82,0,0,0,4.3,6.52,48.17,48.17,0,0,1-6.61-10.37,47.27,47.27,0,0,1-3.6-10.45c-.4-2.2-.66-4.05-.66-4.05s.62,3,1.55,4,.82,1,.85,1.36c0,0,.26,1.37,1.1,5.13A37.27,37.27,0,0,0,49.48,146.38Z"/><path d="M116,75.16c0,.28-1.36.65-2.43,1.64s-2.57,3.13-3.22,3.06-8.22-2.27-10.84-2.55-10.1-.58-10.64-.44-.94.24-1.1-.26a18.39,18.39,0,0,0-2.24-3.67c-.85-1-2.46-2.37-2.38-2.56.46-1.08,9.66-2.29,17.59-1s11.48,2.42,12.41,3.2S116,74.7,116,75.16Z"/><path class="cls-3" d="M67.21,210.65c5.41,1.55,14.85,4.73,20.08-2.16C81.39,208.35,69.47,204.46,67.21,210.65Z"/><path class="cls-4" d="M87.36,208.17c-1.34-6-10.08-6.9-16.72-8.56C71,206.61,81.14,207.39,87.36,208.17Z"/><path class="cls-5" d="M50.94,204.21c5.06,2.55,13.75,7.39,20.12,1.56C65.3,204.56,54.3,198.55,50.94,204.21Z"/><path class="cls-6" d="M71.2,205.48c-.21-6.15-8.66-8.63-14.89-11.49C55.39,201,65.23,203.57,71.2,205.48Z"/><path class="cls-7" d="M36,194.59c4.46,3.43,12,9.9,19.41,5.38C50,197.67,40.33,189.64,36,194.59Z"/><path class="cls-8" d="M55.57,199.68c1-6.08-6.82-10.11-12.38-14.11C41,192.26,50.05,196.68,55.57,199.68Z"/><path class="cls-9" d="M41.28,191.23c-5-3.22-13-12.77-18.17-8.66C26.89,186.74,33.22,194.41,41.28,191.23Z"/><path class="cls-10" d="M41.5,191c2-5.8-5-11.14-9.73-16C28.41,181.12,36.62,187.06,41.5,191Z"/><path class="cls-11" d="M28.73,180.09c-4.17-4.17-10.08-15.21-15.95-12.27C15.61,172.7,20.21,181.54,28.73,180.09Z"/><path class="cls-12" d="M22.86,162.16c-4.6,5.38,2.19,12.87,6.15,17.75C32.16,174.65,26.5,168,22.86,162.16Z"/><path class="cls-13" d="M5.53,151.73c1.88,5.3,4.78,14.82,13.4,15C15.61,161.88,11.86,149.93,5.53,151.73Z"/><path class="cls-14" d="M16.46,148c-5.48,4.45-.21,13.08,2.76,18.6C23.32,162,19,154.42,16.46,148Z"/><path class="cls-15" d="M12,152.15c-2.51-5.27-4.28-17.5-10.72-16.79C2.31,140.84,3.62,150.56,12,152.15Z"/><path class="cls-16" d="M12.53,133.55c-6,3.43-2.26,12.66-.21,18.53C17,148.26,14,140.17,12.53,133.55Z"/><path class="cls-17" d="M7.3,136.35c-1.42-5.66-.78-17.93-7.25-18.46C-.06,123.44-.62,133.23,7.3,136.35Z"/><path class="cls-18" d="M11.44,118.24c-6.62,2.23-4.71,12-3.82,18.07C13,133.48,11.54,125,11.44,118.24Z"/><path class="cls-19" d="M5.81,120.08c-.38-5.8,2.37-17.82-3.92-19.45C.83,106.07-1.44,115.62,5.81,120.08Z"/><path class="cls-20" d="M13.06,103c-6.89,1-6.72,11-6.93,17.15C11.9,118.24,12,109.61,13.06,103Z"/><path class="cls-21" d="M7.41,83.76c-2.2,5.13-6.41,14-.22,19.87C8,97.87,13.21,86.66,7.41,83.76Z"/><path class="cls-22" d="M17.84,88.36c-7-.43-8.88,9.37-10.36,15.35C13.52,103.1,15.4,94.65,17.84,88.36Z"/><path class="cls-23" d="M15.79,68.52C12.71,73.15,6.91,81.07,11.9,88,13.77,82.49,21,72.44,15.79,68.52Z"/><path class="cls-24" d="M12.18,88.15c6.05.49,9.44-7.43,13-13.2C18.44,73.26,14.76,82.52,12.18,88.15Z"/><path class="cls-25" d="M26.61,55.08c-3.86,4-11,10.75-7.29,18.46C22.15,68.45,31,59.89,26.61,55.08Z"/><path class="cls-26" d="M19.54,73.75c5.87,1.59,10.64-5.62,15.17-10.64C28.38,60.24,23.11,68.7,19.54,73.75Z"/><path class="cls-27" d="M39.73,43.87C35.24,47.12,27,52.5,29.26,60.74,32.94,56.25,43.19,49.35,39.73,43.87Z"/><path class="cls-28" d="M29.47,61c5.48,2.58,11.46-3.65,16.8-7.78C40.54,49.25,33.86,56.6,29.47,61Z"/><path class="cls-29" d="M54.93,35.45c-5,2.3-14.14,6-13.54,14.5C45.88,46.24,57.27,41.5,54.93,35.45Z"/><path class="cls-30" d="M41.57,50.24c4.88,3.6,12-1.35,18-4.39C54.72,40.86,46.69,46.81,41.57,50.24Z"/><path class="cls-31" d="M68.16,37.26c-3.11-1.74-12-.67-14.53,5.51C57.41,43.8,65.83,41.85,68.16,37.26Z"/><path class="cls-32" d="M100.09,208.49c5.24,6.89,14.68,3.71,20.09,2.16C117.92,204.46,106,208.35,100.09,208.49Z"/><path class="cls-33" d="M116.75,199.61c-6.65,1.66-15.38,2.55-16.73,8.56C106.25,207.39,116.36,206.61,116.75,199.61Z"/><path class="cls-34" d="M116.33,205.77c6.36,5.83,15.1,1,20.12-1.56C133.12,198.55,122.09,204.56,116.33,205.77Z"/><path class="cls-35" d="M131.07,194c-6.22,2.86-14.67,5.34-14.89,11.49C122.2,203.57,132,201,131.07,194Z"/><path class="cls-36" d="M132,200c7.39,4.52,15-1.95,19.42-5.38C147.06,189.64,137.44,197.67,132,200Z"/><path class="cls-37" d="M144.19,185.57c-5.55,4-13.33,8-12.37,14.11C137.33,196.68,146.42,192.26,144.19,185.57Z"/><path class="cls-38" d="M146.1,191.23c8.06,3.18,14.43-4.49,18.18-8.66C159.15,178.46,151.05,188,146.1,191.23Z"/><path class="cls-39" d="M155.61,174.93c-4.77,4.91-11.7,10.25-9.72,16C150.77,187.06,159,181.12,155.61,174.93Z"/><path class="cls-40" d="M158.66,180.09c8.52,1.45,13.12-7.39,16-12.27C168.73,164.88,162.83,175.92,158.66,180.09Z"/><path class="cls-41" d="M164.53,162.16c-3.61,5.8-9.3,12.49-6.16,17.75C162.33,175,169.12,167.54,164.53,162.16Z"/><path class="cls-42" d="M168.45,166.72c8.67-.17,11.57-9.69,13.44-15C175.56,149.93,171.78,161.88,168.45,166.72Z"/><path class="cls-43" d="M170.93,148c-2.51,6.4-6.86,14-2.76,18.6C171.14,161.1,176.41,152.47,170.93,148Z"/><path class="cls-44" d="M175.38,152.15c8.38-1.59,9.69-11.31,10.68-16.79C179.63,134.65,177.86,146.88,175.38,152.15Z"/><path class="cls-45" d="M175.06,152.08c2.06-5.87,5.8-15.1-.21-18.53C173.4,140.17,170.36,148.26,175.06,152.08Z"/><path class="cls-46" d="M180.09,136.35c7.95-3.12,7.35-12.91,7.25-18.46C180.9,118.42,181.5,130.69,180.09,136.35Z"/><path class="cls-47" d="M176,118.24c-.11,6.75-1.52,15.24,3.82,18.07C180.65,130.19,182.56,120.47,176,118.24Z"/><path class="cls-48" d="M181.57,120.08c7.25-4.46,5-14,3.93-19.45C179.2,102.26,182,114.28,181.57,120.08Z"/><path class="cls-49" d="M181.25,120.11c-.21-6.15,0-16.12-6.93-17.15C175.38,109.61,175.49,118.24,181.25,120.11Z"/><path class="cls-50" d="M180.23,103.63c6.15-5.9,1.94-14.74-.25-19.87C174.18,86.66,179.38,97.87,180.23,103.63Z"/><path class="cls-51" d="M169.58,88.36c2.41,6.29,4.28,14.74,10.33,15.35C178.42,97.73,176.51,87.93,169.58,88.36Z"/><path class="cls-52" d="M171.6,68.52c-5.16,3.92,2,14,3.89,19.48C180.48,81.07,174.68,73.15,171.6,68.52Z"/><path class="cls-53" d="M175.21,88.15c-2.59-5.63-6.26-14.89-13-13.2C165.76,80.72,169.16,88.64,175.21,88.15Z"/><path class="cls-54" d="M160.78,55.08c-4.39,4.81,4.49,13.37,7.28,18.46C171.74,65.83,164.63,59.08,160.78,55.08Z"/><path class="cls-55" d="M167.85,73.75c-3.57-5-8.84-13.51-15.17-10.64C157.21,68.13,162,75.34,167.85,73.75Z"/><path class="cls-56" d="M158.13,60.74c2.22-8.24-6-13.62-10.47-16.87C144.19,49.35,154.45,56.25,158.13,60.74Z"/><path class="cls-57" d="M157.91,61c-4.38-4.39-11.07-11.74-16.79-7.78C146.46,57.34,152.43,63.57,157.91,61Z"/><path class="cls-58" d="M146,50c.6-8.48-8.49-12.2-13.55-14.5C130.12,41.5,141.5,46.24,146,50Z"/><path class="cls-59" d="M145.82,50.24c-5.13-3.43-13.16-9.38-18-4.39C133.87,48.89,140.94,53.84,145.82,50.24Z"/><path class="cls-60" d="M133.76,42.77c-2.51-6.18-11.42-7.25-14.53-5.51C121.56,41.85,130,43.8,133.76,42.77Z"/><path class="cls-61" d="M169.83,120.32a76.12,76.12,0,1,1-76.1-76.14,76.27,76.27,0,0,1,76.1,76.14Zm-1.6,0a74.54,74.54,0,1,0-74.5,74.5A74.7,74.7,0,0,0,168.23,120.32Z"/><path class="cls-62" d="M113.83,23.61c.68.59-3,5.32-5.29,4.48s-3.3-6-2.42-7.42l.24,0a3.17,3.17,0,0,0,3.5-2.71,3.33,3.33,0,0,0-6.62-.44,3,3,0,0,0,1.69,2.76c-.07,1.24-3.5,3.16-4.86,3.28a3.29,3.29,0,0,1-1.45-.18c-1.82-.73-3.84-3.79-3.54-5.6.06-.36-.69-3,1.91-1.5,3.49,2.08,4.93-7.69,1.23-6.58-4.68,1.49-2-1.08-1.89-1.14C97.78,7.26,94.79,1.42,93.69,0c-1.1,1.42-4.09,7.25-2.63,8.58.06.06,2.79,2.63-1.9,1.14-3.7-1.11-2.25,8.66,1.23,6.58,2.61-1.5,1.86,1.14,1.92,1.5.3,1.81-1.72,4.87-3.55,5.6a3.24,3.24,0,0,1-1.44.18c-1.37-.12-4.79-2-4.87-3.28a3,3,0,0,0,1.7-2.76,3.34,3.34,0,0,0-6.63.44A3.18,3.18,0,0,0,81,20.69l.23,0c.88,1.4-.16,6.57-2.41,7.42s-6-3.89-5.29-4.48A2.58,2.58,0,0,0,75.74,21c-.22-2.47-4.06-2.94-5.22-.69-.82-.72-5.24-1.83-4-.76.68.49,7.65,7,9.56,13.47a78.53,78.53,0,0,1,35.22,0c1.91-6.43,8.89-13,9.56-13.47,1.25-1.07-3.17,0-4,.76-1.17-2.25-5-1.78-5.22.69a2.57,2.57,0,0,0,2.18,2.64ZM76.55,35a8.51,8.51,0,0,1,0,3.15,74.87,74.87,0,0,1,34.38,0,8.74,8.74,0,0,1,0-3.15,76.73,76.73,0,0,0-34.29,0Z"/><circle class="cls-63" cx="93.97" cy="208.32" r="4.43"/><path class="cls-64" d="M273.37,89.1H250.49v82.41H233.36V89.1H210.2V73.24h63.17Z"/><path class="cls-65" d="M347.63,83.35v32.71c0,4.49-2.39,7.72-7.3,9,4.91,1,7.3,4.35,7.3,8.84v37.63H330.5V136.13c0-2.1-1-3.23-3.08-3.23h-26v38.61H284.32V73.24h52.92C343.28,73.24,347.63,77.59,347.63,83.35ZM327.84,89.1H301.45V117h26c2.1,0,3.08-1.12,3.08-3.23V91.91C330.5,90.09,329.8,89.1,327.84,89.1Z"/><path class="cls-66" d="M424.84,73.24V161.4a10,10,0,0,1-10.39,10.11H372.06a10.05,10.05,0,0,1-10.39-10.11V73.24H378.8v79.6c0,1.82.7,2.8,2.66,2.8h23.59c2,0,2.67-1,2.67-2.8V73.24Z"/><path class="cls-67" d="M498.82,89.1H475.94v82.41H458.82V89.1H435.65V73.24h63.17Z"/><path class="cls-68" d="M574.07,73.24v98.27H556.94V130.09h-30v41.42H509.77V73.24H526.9v40.85h30V73.24Z"/><path class="cls-69" d="M651.28,83.35V113c0,4.49-2.24,7.86-7.3,9,5.06,1,7.3,4.35,7.3,8.85v30.6a10,10,0,0,1-10.39,10.11H588.11V73.24h52.78C647.07,73.24,651.28,77.59,651.28,83.35ZM631.49,89.1H605.24V114h25.83c2.1,0,3.09-1,3.09-3.23V91.91C634.16,90.09,633.45,89.1,631.49,89.1ZM631.07,130H605.24v25.69h26.25c2,0,2.67-1,2.67-2.8V133C634.16,130.94,633.17,130,631.07,130Z"/><path class="cls-70" d="M682.17,89.1v25.13h29.48v16H682.17v25.4h39.44v15.87H665V73.24h56.57V89.1Z"/><path class="cls-71" d="M795.17,89.1H772.29v82.41H755.16V89.1H732V73.24h63.17Z"/><path class="cls-72" d="M870.7,124.2v47.31H853.57V132.76c0-1.68-.7-2.67-2.66-2.67H823.25v41.42H806.12V73.24h17.13v40.85H842.9l10.25-40.85h17.69l-11.93,40.85h1.4A10,10,0,0,1,870.7,124.2Z"/><path class="cls-73" d="M946.51,73.24V161.4a10,10,0,0,1-10.39,10.11h-42.4a10.06,10.06,0,0,1-10.39-10.11V73.24h17.13v79.6c0,1.82.7,2.8,2.67,2.8h23.58c2,0,2.67-1,2.67-2.8V73.24Z"/><path class="cls-74" d="M1023.72,83.35V113c0,4.49-2.25,7.86-7.3,9,5.05,1,7.3,4.35,7.3,8.85v30.6a10,10,0,0,1-10.39,10.11H960.54V73.24h52.79C1019.5,73.24,1023.72,77.59,1023.72,83.35Zm-19.8,5.75H977.67V114h25.83c2.11,0,3.09-1,3.09-3.23V91.91C1006.59,90.09,1005.89,89.1,1003.92,89.1ZM1003.5,130H977.67v25.69h26.25c2,0,2.67-1,2.67-2.8V133C1006.59,130.94,1005.61,130,1003.5,130Z"/><path class="cls-75" d="M1097.56,81.66v89.85h-17V91.77a2.38,2.38,0,0,0-2.67-2.67h-1.54V73.24h12.49C1094.89,73.24,1097.56,76.33,1097.56,81.66Z"/><path class="cls-76" d="M1174.49,83.35V161.4a10,10,0,0,1-10.39,10.11h-42.4a10.06,10.06,0,0,1-10.39-10.11V142.87h17.13v10c0,1.82.7,2.8,2.67,2.8h23.58c2,0,2.67-1,2.67-2.8V129c-1.41,2.53-3.93,3.37-7.16,3.37h-28.5a10.05,10.05,0,0,1-10.39-10.11V83.35c0-5.76,4.36-10.11,10.39-10.11h42.4C1170.27,73.24,1174.49,77.59,1174.49,83.35Zm-19.8,5.75h-23.58c-2,0-2.67,1-2.67,2.81v21.76c0,1.82.7,2.67,2.67,2.67h23.44c2,0,2.81-.85,2.81-2.67V91.91C1157.36,90.09,1156.66,89.1,1154.69,89.1Z"/></g></g></svg>